<?xml version="1.0" encoding="UTF-8" standalone="no"?><!DOCTYPE svg PUBLIC "-//W3C//DTD SVG 1.1//EN" "http://www.w3.org/Graphics/SVG/1.1/DTD/svg11.dtd"><svg width="100%" height="100%" viewBox="0 0 35 32" version="1.1" xmlns="http://www.w3.org/2000/svg" xmlns:xlink="http://www.w3.org/1999/xlink" xml:space="preserve" xmlns:serif="http://www.serif.com/" style="fill-rule:evenodd;clip-rule:evenodd;stroke-linejoin:round;stroke-miterlimit:2;"><path d="M15.258,26.865c0.029,1.085 -0.379,2.136 -1.133,2.917c-0.753,0.777 -1.79,1.217 -2.872,1.218c-1.082,0 -2.12,-0.44 -2.872,-1.218c-0.755,-0.78 -1.164,-1.832 -1.133,-2.917c0.009,-0.698 0.2,-1.382 0.557,-1.981c0.356,-0.6 0.863,-1.094 1.47,-1.433c-0.024,0.109 0.09,-0.055 0,0l1.86,-1.652c1.474,-1.569 2.298,-3.64 2.304,-5.793c0,-2.926 -1.711,-5.901 -4.17,-7.457c0.094,0.055 -0.036,-0.094 0,0c-0.607,-0.34 -1.114,-0.834 -1.469,-1.433c-0.356,-0.6 -0.548,-1.283 -0.557,-1.98c-0.03,-1.085 0.379,-2.137 1.133,-2.918c0.753,-0.777 1.789,-1.216 2.871,-1.218c1.083,-0.001 2.12,0.439 2.872,1.218c0.755,0.779 1.164,1.832 1.133,2.917c0.01,2.171 0.85,4.259 2.347,5.832l0.817,0.8c0.326,0.285 0.668,0.551 1.024,0.798c0.621,0.33 1.142,0.826 1.504,1.431c0.362,0.605 0.554,1.298 0.554,2.003c-0,1.436 -0.793,2.76 -2.058,3.439c0.033,-0.067 -0.063,0.036 0,0c-1.256,0.794 -2.295,1.888 -3.024,3.183c-0.73,1.297 -1.128,2.756 -1.158,4.244Z" style="fill:#00a5a1;fill-rule:nonzero;"/><path d="M23.748,22.84c-0.792,0 -1.567,0.236 -2.226,0.678c-0.66,0.443 -1.173,1.071 -1.476,1.806c-0.618,1.501 -0.275,3.235 0.869,4.387c1.14,1.149 2.872,1.495 4.366,0.873c0.733,-0.305 1.36,-0.822 1.799,-1.484c1.057,-1.592 0.847,-3.727 -0.5,-5.082c-0.749,-0.754 -1.769,-1.179 -2.832,-1.18l0,0.002Z" style="fill:#ffb300;fill-rule:nonzero;"/><path d="M34,15.994c0,-0.796 -0.235,-1.574 -0.675,-2.236c-0.439,-0.661 -1.065,-1.178 -1.798,-1.483c-1.495,-0.623 -3.227,-0.276 -4.367,0.873c-1.144,1.152 -1.487,2.886 -0.869,4.387c0.303,0.735 0.816,1.363 1.476,1.806c0.658,0.442 1.433,0.678 2.226,0.678c1.063,-0.002 2.082,-0.426 2.832,-1.18c0.752,-0.756 1.174,-1.78 1.175,-2.846l0,0.001Z" style="fill:#ff313c;fill-rule:nonzero;"/><path d="M19.741,5.123c0,0.796 0.235,1.575 0.676,2.237c0.439,0.661 1.065,1.177 1.798,1.482c1.494,0.622 3.226,0.276 4.366,-0.873c1.143,-1.152 1.487,-2.885 0.869,-4.386c-0.303,-0.735 -0.816,-1.363 -1.476,-1.806c-1.582,-1.062 -3.715,-0.85 -5.058,0.501c-0.752,0.756 -1.174,1.779 -1.175,2.845Z" style="fill:#ffb300;fill-rule:nonzero;"/><path d="M5.007,11.969c-0.793,0 -1.567,0.236 -2.226,0.678c-0.66,0.443 -1.173,1.072 -1.476,1.807c-0.618,1.501 -0.274,3.234 0.869,4.386c1.142,1.146 2.871,1.492 4.366,0.873c0.733,-0.305 1.359,-0.822 1.798,-1.483c1.057,-1.591 0.846,-3.725 -0.5,-5.08c-0.749,-0.754 -1.768,-1.179 -2.831,-1.181Z" style="fill:#ff313c;fill-rule:nonzero;"/></svg>